<svg width="601" height="152" viewBox="0 0 601 152" fill="none" xmlns="http://www.w3.org/2000/svg">
<path d="M342.802 54.642H340.674V60H337.615V46.7H340.674V52.077H342.878L346.374 46.7H349.623L345.272 53.122L349.756 60H346.26L342.802 54.642ZM357.234 49.626C358.184 49.626 359.045 49.8477 359.818 50.291C360.603 50.7217 361.218 51.336 361.661 52.134C362.104 52.9193 362.326 53.8377 362.326 54.889C362.326 55.9403 362.104 56.865 361.661 57.663C361.218 58.4483 360.603 59.0627 359.818 59.506C359.045 59.9367 358.184 60.152 357.234 60.152C355.929 60.152 354.903 59.7403 354.156 58.917V63.686H351.192V49.778H354.023V50.956C354.758 50.0693 355.828 49.626 357.234 49.626ZM356.721 57.72C357.481 57.72 358.102 57.4667 358.583 56.96C359.077 56.4407 359.324 55.7503 359.324 54.889C359.324 54.0277 359.077 53.3437 358.583 52.837C358.102 52.3177 357.481 52.058 356.721 52.058C355.961 52.058 355.334 52.3177 354.84 52.837C354.359 53.3437 354.118 54.0277 354.118 54.889C354.118 55.7503 354.359 56.4407 354.84 56.96C355.334 57.4667 355.961 57.72 356.721 57.72ZM368.208 49.626C369.791 49.626 371.007 50.006 371.856 50.766C372.704 51.5133 373.129 52.647 373.129 54.167V60H370.355V58.727C369.797 59.677 368.759 60.152 367.239 60.152C366.453 60.152 365.769 60.019 365.187 59.753C364.617 59.487 364.18 59.1197 363.876 58.651C363.572 58.1823 363.42 57.6503 363.42 57.055C363.42 56.105 363.774 55.3577 364.484 54.813C365.206 54.2683 366.314 53.996 367.809 53.996H370.165C370.165 53.35 369.968 52.856 369.576 52.514C369.183 52.1593 368.594 51.982 367.809 51.982C367.264 51.982 366.726 52.0707 366.194 52.248C365.674 52.4127 365.231 52.6407 364.864 52.932L363.8 50.861C364.357 50.4683 365.022 50.1643 365.795 49.949C366.58 49.7337 367.384 49.626 368.208 49.626ZM367.98 58.157C368.486 58.157 368.936 58.043 369.329 57.815C369.721 57.5743 370 57.226 370.165 56.77V55.725H368.132C366.916 55.725 366.308 56.124 366.308 56.922C366.308 57.302 366.453 57.606 366.745 57.834C367.049 58.0493 367.46 58.157 367.98 58.157ZM380.567 60.152C379.478 60.152 378.496 59.9303 377.622 59.487C376.761 59.031 376.083 58.404 375.589 57.606C375.108 56.808 374.867 55.9023 374.867 54.889C374.867 53.8757 375.108 52.97 375.589 52.172C376.083 51.374 376.761 50.7533 377.622 50.31C378.496 49.854 379.478 49.626 380.567 49.626C381.644 49.626 382.581 49.854 383.379 50.31C384.19 50.7533 384.779 51.393 385.146 52.229L382.847 53.464C382.315 52.5267 381.549 52.058 380.548 52.058C379.776 52.058 379.136 52.3113 378.629 52.818C378.123 53.3247 377.869 54.015 377.869 54.889C377.869 55.763 378.123 56.4533 378.629 56.96C379.136 57.4667 379.776 57.72 380.548 57.72C381.562 57.72 382.328 57.2513 382.847 56.314L385.146 57.568C384.779 58.3787 384.19 59.012 383.379 59.468C382.581 59.924 381.644 60.152 380.567 60.152ZM386.947 49.778H389.892V53.768H394.338V49.778H397.302V60H394.338V56.181H389.892V60H386.947V49.778ZM404.928 60.152C403.851 60.152 402.882 59.9303 402.021 59.487C401.172 59.031 400.507 58.404 400.026 57.606C399.545 56.808 399.304 55.9023 399.304 54.889C399.304 53.8757 399.545 52.97 400.026 52.172C400.507 51.374 401.172 50.7533 402.021 50.31C402.882 49.854 403.851 49.626 404.928 49.626C406.005 49.626 406.967 49.854 407.816 50.31C408.665 50.7533 409.33 51.374 409.811 52.172C410.292 52.97 410.533 53.8757 410.533 54.889C410.533 55.9023 410.292 56.808 409.811 57.606C409.33 58.404 408.665 59.031 407.816 59.487C406.967 59.9303 406.005 60.152 404.928 60.152ZM404.928 57.72C405.688 57.72 406.309 57.4667 406.79 56.96C407.284 56.4407 407.531 55.7503 407.531 54.889C407.531 54.0277 407.284 53.3437 406.79 52.837C406.309 52.3177 405.688 52.058 404.928 52.058C404.168 52.058 403.541 52.3177 403.047 52.837C402.553 53.3437 402.306 54.0277 402.306 54.889C402.306 55.7503 402.553 56.4407 403.047 56.96C403.541 57.4667 404.168 57.72 404.928 57.72ZM423.88 57.568V62.204H421.125V60H413.943V62.204H411.188V57.568H411.606C412.239 57.5553 412.676 57.1817 412.917 56.447C413.158 55.7123 413.31 54.6673 413.373 53.312L413.506 49.778H422.417V57.568H423.88ZM416.052 53.521C416.014 54.5597 415.932 55.4083 415.805 56.067C415.691 56.7257 415.469 57.226 415.14 57.568H419.453V52.21H416.109L416.052 53.521ZM429.716 49.626C431.3 49.626 432.516 50.006 433.364 50.766C434.213 51.5133 434.637 52.647 434.637 54.167V60H431.863V58.727C431.306 59.677 430.267 60.152 428.747 60.152C427.962 60.152 427.278 60.019 426.695 59.753C426.125 59.487 425.688 59.1197 425.384 58.651C425.08 58.1823 424.928 57.6503 424.928 57.055C424.928 56.105 425.283 55.3577 425.992 54.813C426.714 54.2683 427.823 53.996 429.317 53.996H431.673C431.673 53.35 431.477 52.856 431.084 52.514C430.692 52.1593 430.103 51.982 429.317 51.982C428.773 51.982 428.234 52.0707 427.702 52.248C427.183 52.4127 426.74 52.6407 426.372 52.932L425.308 50.861C425.866 50.4683 426.531 50.1643 427.303 49.949C428.089 49.7337 428.893 49.626 429.716 49.626ZM429.488 58.157C429.995 58.157 430.445 58.043 430.837 57.815C431.23 57.5743 431.509 57.226 431.673 56.77V55.725H429.64C428.424 55.725 427.816 56.124 427.816 56.922C427.816 57.302 427.962 57.606 428.253 57.834C428.557 58.0493 428.969 58.157 429.488 58.157ZM443.235 49.626C444.185 49.626 445.046 49.8477 445.819 50.291C446.604 50.7217 447.219 51.336 447.662 52.134C448.105 52.9193 448.327 53.8377 448.327 54.889C448.327 55.9403 448.105 56.865 447.662 57.663C447.219 58.4483 446.604 59.0627 445.819 59.506C445.046 59.9367 444.185 60.152 443.235 60.152C441.93 60.152 440.904 59.7403 440.157 58.917V63.686H437.193V49.778H440.024V50.956C440.759 50.0693 441.829 49.626 443.235 49.626ZM442.722 57.72C443.482 57.72 444.103 57.4667 444.584 56.96C445.078 56.4407 445.325 55.7503 445.325 54.889C445.325 54.0277 445.078 53.3437 444.584 52.837C444.103 52.3177 443.482 52.058 442.722 52.058C441.962 52.058 441.335 52.3177 440.841 52.837C440.36 53.3437 440.119 54.0277 440.119 54.889C440.119 55.7503 440.36 56.4407 440.841 56.96C441.335 57.4667 441.962 57.72 442.722 57.72ZM455.268 60.152C454.179 60.152 453.197 59.9303 452.323 59.487C451.462 59.031 450.784 58.404 450.29 57.606C449.809 56.808 449.568 55.9023 449.568 54.889C449.568 53.8757 449.809 52.97 450.29 52.172C450.784 51.374 451.462 50.7533 452.323 50.31C453.197 49.854 454.179 49.626 455.268 49.626C456.345 49.626 457.282 49.854 458.08 50.31C458.891 50.7533 459.48 51.393 459.847 52.229L457.548 53.464C457.016 52.5267 456.25 52.058 455.249 52.058C454.477 52.058 453.837 52.3113 453.33 52.818C452.824 53.3247 452.57 54.015 452.57 54.889C452.57 55.763 452.824 56.4533 453.33 56.96C453.837 57.4667 454.477 57.72 455.249 57.72C456.263 57.72 457.029 57.2513 457.548 56.314L459.847 57.568C459.48 58.3787 458.891 59.012 458.08 59.468C457.282 59.924 456.345 60.152 455.268 60.152ZM466.152 56.124H464.613V60H461.649V49.778H464.613V53.749H466.209L468.983 49.778H472.137L468.565 54.68L472.384 60H468.888L466.152 56.124ZM477.625 49.626C479.208 49.626 480.424 50.006 481.273 50.766C482.121 51.5133 482.546 52.647 482.546 54.167V60H479.772V58.727C479.214 59.677 478.176 60.152 476.656 60.152C475.87 60.152 475.186 60.019 474.604 59.753C474.034 59.487 473.597 59.1197 473.293 58.651C472.989 58.1823 472.837 57.6503 472.837 57.055C472.837 56.105 473.191 55.3577 473.901 54.813C474.623 54.2683 475.731 53.996 477.226 53.996H479.582C479.582 53.35 479.385 52.856 478.993 52.514C478.6 52.1593 478.011 51.982 477.226 51.982C476.681 51.982 476.143 52.0707 475.611 52.248C475.091 52.4127 474.648 52.6407 474.281 52.932L473.217 50.861C473.774 50.4683 474.439 50.1643 475.212 49.949C475.997 49.7337 476.801 49.626 477.625 49.626ZM477.397 58.157C477.903 58.157 478.353 58.043 478.746 57.815C479.138 57.5743 479.417 57.226 479.582 56.77V55.725H477.549C476.333 55.725 475.725 56.124 475.725 56.922C475.725 57.302 475.87 57.606 476.162 57.834C476.466 58.0493 476.877 58.157 477.397 58.157ZM494.202 49.778V60H491.561V57.074H489.376L487.438 60H484.284L486.621 56.656C485.912 56.3773 485.367 55.9783 484.987 55.459C484.62 54.927 484.436 54.2873 484.436 53.54C484.436 52.3367 484.867 51.412 485.728 50.766C486.602 50.1073 487.799 49.778 489.319 49.778H494.202ZM489.376 52.191C488.743 52.191 488.262 52.305 487.932 52.533C487.616 52.761 487.457 53.1283 487.457 53.635C487.457 54.1417 487.609 54.5153 487.913 54.756C488.23 54.984 488.705 55.098 489.338 55.098H491.561V52.191H489.376ZM351.371 80.492V85.755H348.521V83H339.135V85.755H336.285L336.304 80.492H336.836C337.634 80.4667 338.198 79.884 338.527 78.744C338.856 77.604 339.059 75.9763 339.135 73.861L339.287 69.7H349.509V80.492H351.371ZM341.852 74.146C341.789 75.7293 341.656 77.0593 341.453 78.136C341.25 79.2 340.94 79.9853 340.522 80.492H346.469V72.208H341.909L341.852 74.146ZM363.022 77.927C363.022 77.965 363.003 78.231 362.965 78.725H355.232C355.371 79.3583 355.701 79.8587 356.22 80.226C356.739 80.5933 357.385 80.777 358.158 80.777C358.69 80.777 359.159 80.701 359.564 80.549C359.982 80.3843 360.368 80.131 360.723 79.789L362.3 81.499C361.337 82.601 359.931 83.152 358.082 83.152C356.929 83.152 355.91 82.9303 355.023 82.487C354.136 82.031 353.452 81.404 352.971 80.606C352.49 79.808 352.249 78.9023 352.249 77.889C352.249 76.8883 352.483 75.989 352.952 75.191C353.433 74.3803 354.086 73.7533 354.909 73.31C355.745 72.854 356.676 72.626 357.702 72.626C358.703 72.626 359.608 72.8413 360.419 73.272C361.23 73.7027 361.863 74.3233 362.319 75.134C362.788 75.932 363.022 76.863 363.022 77.927ZM357.721 74.868C357.05 74.868 356.486 75.058 356.03 75.438C355.574 75.818 355.295 76.3373 355.194 76.996H360.229C360.128 76.35 359.849 75.837 359.393 75.457C358.937 75.0643 358.38 74.868 357.721 74.868ZM371.317 72.626C372.267 72.626 373.128 72.8477 373.901 73.291C374.686 73.7217 375.301 74.336 375.744 75.134C376.187 75.9193 376.409 76.8377 376.409 77.889C376.409 78.9403 376.187 79.865 375.744 80.663C375.301 81.4483 374.686 82.0627 373.901 82.506C373.128 82.9367 372.267 83.152 371.317 83.152C370.012 83.152 368.986 82.7403 368.239 81.917V86.686H365.275V72.778H368.106V73.956C368.841 73.0693 369.911 72.626 371.317 72.626ZM370.804 80.72C371.564 80.72 372.185 80.4667 372.666 79.96C373.16 79.4407 373.407 78.7503 373.407 77.889C373.407 77.0277 373.16 76.3437 372.666 75.837C372.185 75.3177 371.564 75.058 370.804 75.058C370.044 75.058 369.417 75.3177 368.923 75.837C368.442 76.3437 368.201 77.0277 368.201 77.889C368.201 78.7503 368.442 79.4407 368.923 79.96C369.417 80.4667 370.044 80.72 370.804 80.72ZM388.424 77.927C388.424 77.965 388.405 78.231 388.367 78.725H380.634C380.773 79.3583 381.102 79.8587 381.622 80.226C382.141 80.5933 382.787 80.777 383.56 80.777C384.092 80.777 384.56 80.701 384.966 80.549C385.384 80.3843 385.77 80.131 386.125 79.789L387.702 81.499C386.739 82.601 385.333 83.152 383.484 83.152C382.331 83.152 381.311 82.9303 380.425 82.487C379.538 82.031 378.854 81.404 378.373 80.606C377.891 79.808 377.651 78.9023 377.651 77.889C377.651 76.8883 377.885 75.989 378.354 75.191C378.835 74.3803 379.487 73.7533 380.311 73.31C381.147 72.854 382.078 72.626 383.104 72.626C384.104 72.626 385.01 72.8413 385.821 73.272C386.631 73.7027 387.265 74.3233 387.721 75.134C388.189 75.932 388.424 76.863 388.424 77.927ZM383.123 74.868C382.451 74.868 381.888 75.058 381.432 75.438C380.976 75.818 380.697 76.3373 380.596 76.996H385.631C385.529 76.35 385.251 75.837 384.795 75.457C384.339 75.0643 383.781 74.868 383.123 74.868ZM398.505 77.661C399.708 78.0663 400.31 78.877 400.31 80.093C400.31 81.0177 399.961 81.7333 399.265 82.24C398.568 82.7467 397.529 83 396.149 83H390.696V72.778H395.921C397.2 72.778 398.201 73.0123 398.923 73.481C399.645 73.937 400.006 74.583 400.006 75.419C400.006 75.9257 399.873 76.3753 399.607 76.768C399.353 77.148 398.986 77.4457 398.505 77.661ZM393.413 76.977H395.655C396.693 76.977 397.213 76.6097 397.213 75.875C397.213 75.153 396.693 74.792 395.655 74.792H393.413V76.977ZM395.902 80.986C396.991 80.986 397.536 80.6123 397.536 79.865C397.536 79.4723 397.409 79.1873 397.156 79.01C396.902 78.82 396.503 78.725 395.959 78.725H393.413V80.986H395.902ZM407.303 83.152C406.226 83.152 405.257 82.9303 404.396 82.487C403.547 82.031 402.882 81.404 402.401 80.606C401.92 79.808 401.679 78.9023 401.679 77.889C401.679 76.8757 401.92 75.97 402.401 75.172C402.882 74.374 403.547 73.7533 404.396 73.31C405.257 72.854 406.226 72.626 407.303 72.626C408.38 72.626 409.342 72.854 410.191 73.31C411.04 73.7533 411.705 74.374 412.186 75.172C412.667 75.97 412.908 76.8757 412.908 77.889C412.908 78.9023 412.667 79.808 412.186 80.606C411.705 81.404 411.04 82.031 410.191 82.487C409.342 82.9303 408.38 83.152 407.303 83.152ZM407.303 80.72C408.063 80.72 408.684 80.4667 409.165 79.96C409.659 79.4407 409.906 78.7503 409.906 77.889C409.906 77.0277 409.659 76.3437 409.165 75.837C408.684 75.3177 408.063 75.058 407.303 75.058C406.543 75.058 405.916 75.3177 405.422 75.837C404.928 76.3437 404.681 77.0277 404.681 77.889C404.681 78.7503 404.928 79.4407 405.422 79.96C405.916 80.4667 406.543 80.72 407.303 80.72ZM419.734 83.152C418.658 83.152 417.689 82.9303 416.827 82.487C415.979 82.031 415.314 81.404 414.832 80.606C414.351 79.808 414.11 78.9023 414.11 77.889C414.11 76.8757 414.351 75.97 414.832 75.172C415.314 74.374 415.979 73.7533 416.827 73.31C417.689 72.854 418.658 72.626 419.734 72.626C420.811 72.626 421.774 72.854 422.622 73.31C423.471 73.7533 424.136 74.374 424.617 75.172C425.099 75.97 425.339 76.8757 425.339 77.889C425.339 78.9023 425.099 79.808 424.617 80.606C424.136 81.404 423.471 82.031 422.622 82.487C421.774 82.9303 420.811 83.152 419.734 83.152ZM419.734 80.72C420.494 80.72 421.115 80.4667 421.596 79.96C422.09 79.4407 422.337 78.7503 422.337 77.889C422.337 77.0277 422.09 76.3437 421.596 75.837C421.115 75.3177 420.494 75.058 419.734 75.058C418.974 75.058 418.347 75.3177 417.853 75.837C417.359 76.3437 417.112 77.0277 417.112 77.889C417.112 78.7503 417.359 79.4407 417.853 79.96C418.347 80.4667 418.974 80.72 419.734 80.72ZM433.287 73.481C434.262 73.481 435.117 73.6837 435.852 74.089C436.587 74.4817 437.15 75.039 437.543 75.761C437.948 76.483 438.151 77.319 438.151 78.269C438.151 79.2443 437.91 80.112 437.429 80.872C436.96 81.6193 436.302 82.202 435.453 82.62C434.604 83.0253 433.642 83.228 432.565 83.228C430.779 83.228 429.373 82.658 428.347 81.518C427.334 80.3653 426.827 78.6807 426.827 76.464C426.827 74.412 427.27 72.778 428.157 71.562C429.056 70.3333 430.431 69.529 432.28 69.149L437.144 68.18L437.543 70.726L433.249 71.581C432.084 71.809 431.216 72.189 430.646 72.721C430.089 73.253 429.759 74.0067 429.658 74.982C430.101 74.5007 430.633 74.1333 431.254 73.88C431.875 73.614 432.552 73.481 433.287 73.481ZM432.584 80.929C433.344 80.929 433.952 80.682 434.408 80.188C434.877 79.694 435.111 79.067 435.111 78.307C435.111 77.5343 434.877 76.92 434.408 76.464C433.952 76.008 433.344 75.78 432.584 75.78C431.811 75.78 431.191 76.008 430.722 76.464C430.253 76.92 430.019 77.5343 430.019 78.307C430.019 79.0797 430.26 79.713 430.741 80.207C431.222 80.6883 431.837 80.929 432.584 80.929ZM446.185 72.626C447.135 72.626 447.997 72.8477 448.769 73.291C449.555 73.7217 450.169 74.336 450.612 75.134C451.056 75.9193 451.277 76.8377 451.277 77.889C451.277 78.9403 451.056 79.865 450.612 80.663C450.169 81.4483 449.555 82.0627 448.769 82.506C447.997 82.9367 447.135 83.152 446.185 83.152C444.881 83.152 443.855 82.7403 443.107 81.917V86.686H440.143V72.778H442.974V73.956C443.709 73.0693 444.779 72.626 446.185 72.626ZM445.672 80.72C446.432 80.72 447.053 80.4667 447.534 79.96C448.028 79.4407 448.275 78.7503 448.275 77.889C448.275 77.0277 448.028 76.3437 447.534 75.837C447.053 75.3177 446.432 75.058 445.672 75.058C444.912 75.058 444.285 75.3177 443.791 75.837C443.31 76.3437 443.069 77.0277 443.069 77.889C443.069 78.7503 443.31 79.4407 443.791 79.96C444.285 80.4667 444.912 80.72 445.672 80.72ZM457.159 72.626C458.742 72.626 459.958 73.006 460.807 73.766C461.655 74.5133 462.08 75.647 462.08 77.167V83H459.306V81.727C458.748 82.677 457.71 83.152 456.19 83.152C455.404 83.152 454.72 83.019 454.138 82.753C453.568 82.487 453.131 82.1197 452.827 81.651C452.523 81.1823 452.371 80.6503 452.371 80.055C452.371 79.105 452.725 78.3577 453.435 77.813C454.157 77.2683 455.265 76.996 456.76 76.996H459.116C459.116 76.35 458.919 75.856 458.527 75.514C458.134 75.1593 457.545 74.982 456.76 74.982C456.215 74.982 455.677 75.0707 455.145 75.248C454.625 75.4127 454.182 75.6407 453.815 75.932L452.751 73.861C453.308 73.4683 453.973 73.1643 454.746 72.949C455.531 72.7337 456.335 72.626 457.159 72.626ZM456.931 81.157C457.437 81.157 457.887 81.043 458.28 80.815C458.672 80.5743 458.951 80.226 459.116 79.77V78.725H457.083C455.867 78.725 455.259 79.124 455.259 79.922C455.259 80.302 455.404 80.606 455.696 80.834C456 81.0493 456.411 81.157 456.931 81.157ZM470.563 73.481C471.539 73.481 472.394 73.6837 473.128 74.089C473.863 74.4817 474.427 75.039 474.819 75.761C475.225 76.483 475.427 77.319 475.427 78.269C475.427 79.2443 475.187 80.112 474.705 80.872C474.237 81.6193 473.578 82.202 472.729 82.62C471.881 83.0253 470.918 83.228 469.841 83.228C468.055 83.228 466.649 82.658 465.623 81.518C464.61 80.3653 464.103 78.6807 464.103 76.464C464.103 74.412 464.547 72.778 465.433 71.562C466.333 70.3333 467.707 69.529 469.556 69.149L474.42 68.18L474.819 70.726L470.525 71.581C469.36 71.809 468.492 72.189 467.922 72.721C467.365 73.253 467.036 74.0067 466.934 74.982C467.378 74.5007 467.91 74.1333 468.53 73.88C469.151 73.614 469.829 73.481 470.563 73.481ZM469.86 80.929C470.62 80.929 471.228 80.682 471.684 80.188C472.153 79.694 472.387 79.067 472.387 78.307C472.387 77.5343 472.153 76.92 471.684 76.464C471.228 76.008 470.62 75.78 469.86 75.78C469.088 75.78 468.467 76.008 467.998 76.464C467.53 76.92 467.295 77.5343 467.295 78.307C467.295 79.0797 467.536 79.713 468.017 80.207C468.499 80.6883 469.113 80.929 469.86 80.929ZM481.243 72.626C482.826 72.626 484.042 73.006 484.891 73.766C485.739 74.5133 486.164 75.647 486.164 77.167V83H483.39V81.727C482.832 82.677 481.794 83.152 480.274 83.152C479.488 83.152 478.804 83.019 478.222 82.753C477.652 82.487 477.215 82.1197 476.911 81.651C476.607 81.1823 476.455 80.6503 476.455 80.055C476.455 79.105 476.809 78.3577 477.519 77.813C478.241 77.2683 479.349 76.996 480.844 76.996H483.2C483.2 76.35 483.003 75.856 482.611 75.514C482.218 75.1593 481.629 74.982 480.844 74.982C480.299 74.982 479.761 75.0707 479.229 75.248C478.709 75.4127 478.266 75.6407 477.899 75.932L476.835 73.861C477.392 73.4683 478.057 73.1643 478.83 72.949C479.615 72.7337 480.419 72.626 481.243 72.626ZM481.015 81.157C481.521 81.157 481.971 81.043 482.364 80.815C482.756 80.5743 483.035 80.226 483.2 79.77V78.725H481.167C479.951 78.725 479.343 79.124 479.343 79.922C479.343 80.302 479.488 80.606 479.78 80.834C480.084 81.0493 480.495 81.157 481.015 81.157ZM497.326 75.21H493.868V83H490.923V75.21H487.465V72.778H497.326V75.21ZM504.283 76.046C505.613 76.0587 506.62 76.3563 507.304 76.939C507.988 77.5217 508.33 78.3577 508.33 79.447C508.33 80.587 507.944 81.4673 507.171 82.088C506.399 82.7087 505.303 83.019 503.884 83.019L498.906 83V72.778H501.851V76.046H504.283ZM509.432 72.778H512.377V83H509.432V72.778ZM503.618 80.91C504.188 80.9227 504.625 80.8023 504.929 80.549C505.233 80.2957 505.385 79.9157 505.385 79.409C505.385 78.915 505.233 78.554 504.929 78.326C504.638 78.098 504.201 77.9777 503.618 77.965L501.851 77.946V80.91H503.618ZM523.044 77.661C524.247 78.0663 524.849 78.877 524.849 80.093C524.849 81.0177 524.5 81.7333 523.804 82.24C523.107 82.7467 522.068 83 520.688 83H515.235V72.778H520.46C521.739 72.778 522.74 73.0123 523.462 73.481C524.184 73.937 524.545 74.583 524.545 75.419C524.545 75.9257 524.412 76.3753 524.146 76.768C523.892 77.148 523.525 77.4457 523.044 77.661ZM517.952 76.977H520.194C521.232 76.977 521.752 76.6097 521.752 75.875C521.752 75.153 521.232 74.792 520.194 74.792H517.952V76.977ZM520.441 80.986C521.53 80.986 522.075 80.6123 522.075 79.865C522.075 79.4723 521.948 79.1873 521.695 79.01C521.441 78.82 521.042 78.725 520.498 78.725H517.952V80.986H520.441ZM531.025 72.626C532.608 72.626 533.824 73.006 534.673 73.766C535.522 74.5133 535.946 75.647 535.946 77.167V83H533.172V81.727C532.615 82.677 531.576 83.152 530.056 83.152C529.271 83.152 528.587 83.019 528.004 82.753C527.434 82.487 526.997 82.1197 526.693 81.651C526.389 81.1823 526.237 80.6503 526.237 80.055C526.237 79.105 526.592 78.3577 527.301 77.813C528.023 77.2683 529.131 76.996 530.626 76.996H532.982C532.982 76.35 532.786 75.856 532.393 75.514C532 75.1593 531.411 74.982 530.626 74.982C530.081 74.982 529.543 75.0707 529.011 75.248C528.492 75.4127 528.048 75.6407 527.681 75.932L526.617 73.861C527.174 73.4683 527.839 73.1643 528.612 72.949C529.397 72.7337 530.202 72.626 531.025 72.626ZM530.797 81.157C531.304 81.157 531.753 81.043 532.146 80.815C532.539 80.5743 532.817 80.226 532.982 79.77V78.725H530.949C529.733 78.725 529.125 79.124 529.125 79.922C529.125 80.302 529.271 80.606 529.562 80.834C529.866 81.0493 530.278 81.157 530.797 81.157ZM548.192 72.626C549.23 72.626 550.161 72.854 550.985 73.31C551.808 73.7533 552.454 74.374 552.923 75.172C553.391 75.97 553.626 76.8757 553.626 77.889C553.626 78.9023 553.391 79.808 552.923 80.606C552.454 81.404 551.808 82.031 550.985 82.487C550.161 82.9303 549.23 83.152 548.192 83.152C547.292 83.152 546.469 82.9873 545.722 82.658C544.974 82.316 544.354 81.841 543.86 81.233C543.366 80.6123 543.036 79.903 542.872 79.105H541.466V83H538.521V72.778H541.466V76.54H542.891C543.182 75.3493 543.803 74.3993 544.753 73.69C545.703 72.9807 546.849 72.626 548.192 72.626ZM548.192 80.72C548.914 80.72 549.509 80.4667 549.978 79.96C550.459 79.4407 550.7 78.7503 550.7 77.889C550.7 77.015 550.459 76.3247 549.978 75.818C549.509 75.3113 548.914 75.058 548.192 75.058C547.457 75.058 546.849 75.3113 546.368 75.818C545.899 76.3247 545.665 77.015 545.665 77.889C545.665 78.7503 545.899 79.4407 546.368 79.96C546.849 80.4667 547.457 80.72 548.192 80.72ZM571.283 72.778V83H555.684V72.778H558.629V80.568H562.03V72.778H564.975V80.568H568.338V72.778H571.283ZM572.708 80.568V85.033H569.953V83H568.262V80.568H572.708ZM578.098 72.626C579.681 72.626 580.897 73.006 581.746 73.766C582.595 74.5133 583.019 75.647 583.019 77.167V83H580.245V81.727C579.688 82.677 578.649 83.152 577.129 83.152C576.344 83.152 575.66 83.019 575.077 82.753C574.507 82.487 574.07 82.1197 573.766 81.651C573.462 81.1823 573.31 80.6503 573.31 80.055C573.31 79.105 573.665 78.3577 574.374 77.813C575.096 77.2683 576.204 76.996 577.699 76.996H580.055C580.055 76.35 579.859 75.856 579.466 75.514C579.073 75.1593 578.484 74.982 577.699 74.982C577.154 74.982 576.616 75.0707 576.084 75.248C575.565 75.4127 575.121 75.6407 574.754 75.932L573.69 73.861C574.247 73.4683 574.912 73.1643 575.685 72.949C576.47 72.7337 577.275 72.626 578.098 72.626ZM577.87 81.157C578.377 81.157 578.826 81.043 579.219 80.815C579.612 80.5743 579.89 80.226 580.055 79.77V78.725H578.022C576.806 78.725 576.198 79.124 576.198 79.922C576.198 80.302 576.344 80.606 576.635 80.834C576.939 81.0493 577.351 81.157 577.87 81.157ZM594.676 72.778V83H592.035V80.074H589.85L587.912 83H584.758L587.095 79.656C586.386 79.3773 585.841 78.9783 585.461 78.459C585.094 77.927 584.91 77.2873 584.91 76.54C584.91 75.3367 585.341 74.412 586.202 73.766C587.076 73.1073 588.273 72.778 589.793 72.778H594.676ZM589.85 75.191C589.217 75.191 588.735 75.305 588.406 75.533C588.089 75.761 587.931 76.1283 587.931 76.635C587.931 77.1417 588.083 77.5153 588.387 77.756C588.704 77.984 589.179 78.098 589.812 78.098H592.035V75.191H589.85ZM353.404 99.312C353.404 101.073 352.802 102.46 351.599 103.473C350.408 104.474 348.692 105.031 346.45 105.145V106.589H343.619V105.126C341.364 104.999 339.635 104.436 338.432 103.435C337.241 102.422 336.646 101.047 336.646 99.312C336.646 97.564 337.241 96.196 338.432 95.208C339.635 94.2073 341.364 93.6373 343.619 93.498V92.13H346.45V93.479C348.692 93.6057 350.408 94.1757 351.599 95.189C352.802 96.2023 353.404 97.5767 353.404 99.312ZM346.45 102.732C347.793 102.605 348.793 102.263 349.452 101.706C350.111 101.136 350.44 100.332 350.44 99.293C350.44 97.2663 349.11 96.139 346.45 95.911V102.732ZM339.629 99.312C339.629 101.313 340.959 102.453 343.619 102.732V95.911C342.264 96.0377 341.257 96.3797 340.598 96.937C339.952 97.4817 339.629 98.2733 339.629 99.312ZM359.45 95.626C361.033 95.626 362.249 96.006 363.098 96.766C363.946 97.5133 364.371 98.647 364.371 100.167V106H361.597V104.727C361.039 105.677 360.001 106.152 358.481 106.152C357.695 106.152 357.011 106.019 356.429 105.753C355.859 105.487 355.422 105.12 355.118 104.651C354.814 104.182 354.662 103.65 354.662 103.055C354.662 102.105 355.016 101.358 355.726 100.813C356.448 100.268 357.556 99.996 359.051 99.996H361.407C361.407 99.35 361.21 98.856 360.818 98.514C360.425 98.1593 359.836 97.982 359.051 97.982C358.506 97.982 357.968 98.0707 357.436 98.248C356.916 98.4127 356.473 98.6407 356.106 98.932L355.042 96.861C355.599 96.4683 356.264 96.1643 357.037 95.949C357.822 95.7337 358.626 95.626 359.45 95.626ZM359.222 104.157C359.728 104.157 360.178 104.043 360.571 103.815C360.963 103.574 361.242 103.226 361.407 102.77V101.725H359.374C358.158 101.725 357.55 102.124 357.55 102.922C357.55 103.302 357.695 103.606 357.987 103.834C358.291 104.049 358.702 104.157 359.222 104.157ZM372.855 96.481C373.83 96.481 374.685 96.6837 375.42 97.089C376.154 97.4817 376.718 98.039 377.111 98.761C377.516 99.483 377.719 100.319 377.719 101.269C377.719 102.244 377.478 103.112 376.997 103.872C376.528 104.619 375.869 105.202 375.021 105.62C374.172 106.025 373.209 106.228 372.133 106.228C370.347 106.228 368.941 105.658 367.915 104.518C366.901 103.365 366.395 101.681 366.395 99.464C366.395 97.412 366.838 95.778 367.725 94.562C368.624 93.3333 369.998 92.529 371.848 92.149L376.712 91.18L377.111 93.726L372.817 94.581C371.651 94.809 370.784 95.189 370.214 95.721C369.656 96.253 369.327 97.0067 369.226 97.982C369.669 97.5007 370.201 97.1333 370.822 96.88C371.442 96.614 372.12 96.481 372.855 96.481ZM372.152 103.929C372.912 103.929 373.52 103.682 373.976 103.188C374.444 102.694 374.679 102.067 374.679 101.307C374.679 100.534 374.444 99.92 373.976 99.464C373.52 99.008 372.912 98.78 372.152 98.78C371.379 98.78 370.758 99.008 370.29 99.464C369.821 99.92 369.587 100.534 369.587 101.307C369.587 102.08 369.827 102.713 370.309 103.207C370.79 103.688 371.404 103.929 372.152 103.929ZM385.753 95.626C386.703 95.626 387.564 95.8477 388.337 96.291C389.122 96.7217 389.736 97.336 390.18 98.134C390.623 98.9193 390.845 99.8377 390.845 100.889C390.845 101.94 390.623 102.865 390.18 103.663C389.736 104.448 389.122 105.063 388.337 105.506C387.564 105.937 386.703 106.152 385.753 106.152C384.448 106.152 383.422 105.74 382.675 104.917V109.686H379.711V95.778H382.542V96.956C383.276 96.0693 384.347 95.626 385.753 95.626ZM385.24 103.72C386 103.72 386.62 103.467 387.102 102.96C387.596 102.441 387.843 101.75 387.843 100.889C387.843 100.028 387.596 99.3437 387.102 98.837C386.62 98.3177 386 98.058 385.24 98.058C384.48 98.058 383.853 98.3177 383.359 98.837C382.877 99.3437 382.637 100.028 382.637 100.889C382.637 101.75 382.877 102.441 383.359 102.96C383.853 103.467 384.48 103.72 385.24 103.72ZM392.922 95.778H395.867V101.858L400.845 95.778H403.562V106H400.617V99.92L395.658 106H392.922V95.778ZM410.914 102.124H409.375V106H406.411V95.778H409.375V99.749H410.971L413.745 95.778H416.899L413.327 100.68L417.146 106H413.65L410.914 102.124ZM422.387 95.626C423.971 95.626 425.187 96.006 426.035 96.766C426.884 97.5133 427.308 98.647 427.308 100.167V106H424.534V104.727C423.977 105.677 422.938 106.152 421.418 106.152C420.633 106.152 419.949 106.019 419.366 105.753C418.796 105.487 418.359 105.12 418.055 104.651C417.751 104.182 417.599 103.65 417.599 103.055C417.599 102.105 417.954 101.358 418.663 100.813C419.385 100.268 420.494 99.996 421.988 99.996H424.344C424.344 99.35 424.148 98.856 423.755 98.514C423.363 98.1593 422.774 97.982 421.988 97.982C421.444 97.982 420.905 98.0707 420.373 98.248C419.854 98.4127 419.411 98.6407 419.043 98.932L417.979 96.861C418.537 96.4683 419.202 96.1643 419.974 95.949C420.76 95.7337 421.564 95.626 422.387 95.626ZM422.159 104.157C422.666 104.157 423.116 104.043 423.508 103.815C423.901 103.574 424.18 103.226 424.344 102.77V101.725H422.311C421.095 101.725 420.487 102.124 420.487 102.922C420.487 103.302 420.633 103.606 420.924 103.834C421.228 104.049 421.64 104.157 422.159 104.157Z" fill="#966A45"/>
<g clip-path="url(#clip0)">
<path d="M75.0489 103.413C74.4393 107.405 72.2283 111.707 68.3746 116.443C67.3931 117.653 66.3703 118.831 65.3475 120H72.7966C75.7101 117.136 78.3757 114.013 80.38 110.321L75.0489 103.413Z" fill="#2B5A27"/>
<path d="M70.7406 97.8294L64.9446 90.3116C64.1697 89.3086 63.2295 88.4503 62.155 87.7988C60.8636 87.0026 59.4378 86.2167 57.8777 85.4411C54.086 83.5488 50.439 81.7908 46.9675 80.2811L40.0764 87.6437C43.8371 88.7709 47.7321 90.4667 51.5135 92.69C56.0904 95.3786 58.8696 98.6256 59.7478 102.328C60.8946 107.126 58.8489 111.872 56.1523 116.401L58.9729 119.99H61.2768C62.8782 118.211 64.4693 116.401 66.019 114.509C69.6558 110.063 71.6601 106.133 72.094 102.596C72.3007 100.901 71.7944 99.184 70.7406 97.8294Z" fill="#2B5A27"/>
<path d="M56.8032 103.041C56.111 100.135 53.8794 97.6019 49.9844 95.3166C45.9344 92.9382 41.7191 91.1906 37.7311 90.1565L36.5223 91.4491L54.1377 113.847C56.204 110.197 57.6298 106.495 56.8032 103.041Z" fill="#2B5A27"/>
<path d="M82.3843 112.927C80.8346 115.533 78.9956 117.849 77.0119 119.99H87.8291L82.3843 112.927Z" fill="#2B5A27"/>
<path d="M52.588 74.2834L49.1992 77.9027C52.557 79.4021 55.8528 81.0463 59.0143 82.6181L52.588 74.2834Z" fill="#2B5A27"/>
<path d="M0 55.0496C2.98584 53.9018 8.27563 51.6888 14.8052 48.1419C17.1195 46.8907 20.5083 45.7325 24.5996 44.9053V36.3328C15.4561 39.5901 4.49425 41.1309 0 41.6583V55.0496Z" fill="#2B5A27"/>
<path d="M12.7595 65.8867C16.4789 62.4949 20.4153 60.8818 24.5996 60.3647V48.0179C21.0972 48.7521 18.225 49.7448 16.2516 50.8099C8.6579 54.9358 2.76887 57.2832 0 58.2966V72.7633C1.98367 72.8254 6.10599 71.9464 12.7595 65.8867Z" fill="#2B5A27"/>
<path d="M44.5913 47.1389L32.214 60.4475C36.388 60.9542 40.7892 62.0606 45.4178 63.2395C48.5173 64.0254 51.7201 64.832 55.0262 65.5041L63.4465 56.4973L66.1947 53.5088C59.2002 49.8172 51.6891 47.8834 44.5913 47.1389Z" fill="#2B5A27"/>
<path d="M2.25229 89.0604C4.40127 88.8639 7.93468 87.2404 12.5323 80.6016C20.3326 69.3199 32.7719 71.2329 45.0665 76.1448L52.6189 68.0686C49.8914 67.4792 47.2362 66.8277 44.6739 66.1763C39.1568 64.7803 34.1667 63.5187 29.5898 63.2602L24.5892 68.627V63.436C21.0972 63.9427 17.8427 65.349 14.7949 68.1307C7.70739 74.5937 2.85153 75.8759 0 75.8139V88.7088C0.557907 88.9467 1.30178 89.1431 2.25229 89.0604Z" fill="#2B5A27"/>
<path d="M85.9591 32.0827L79.6051 38.9904C76.4437 37.2221 72.9206 35.7744 69.2012 34.6162C69.2012 34.6162 62.7749 32.7135 58.601 32.0827H85.9591V32.0827Z" fill="#2B5A27"/>
<path d="M18.4419 115.781C20.7356 112.493 22.7606 110.59 24.5996 109.618V101.294C22.0787 102.555 20.4979 105.73 18.0907 111.531C16.4169 115.574 13.8444 118.159 10.4659 119.224C6.62257 120.424 2.63456 119.349 0 118.263V120H13.8857C15.6524 118.883 17.2435 117.498 18.4419 115.781Z" fill="#2B5A27"/>
<path d="M16.1483 93.3311C17.7704 90.0945 20.4669 87.8919 24.176 86.7958C27.3478 85.8548 31.1912 85.7927 35.3548 86.5269L42.7936 78.5749C30.8605 73.9836 21.2625 73.3114 15.0222 82.3389C10.7552 88.5123 6.50892 91.8007 2.40727 92.1109C1.49808 92.1626 0.70255 92.0696 0 91.8938V103.537C4.20497 102.638 12.8112 100.022 16.1483 93.3311Z" fill="#2B5A27"/>
<path d="M20.1053 34.6162L24.5996 33.6338V32.0827H0V38.5974C3.96734 38.1114 12.3669 36.9015 20.1053 34.6162Z" fill="#2B5A27"/>
<path d="M47.2361 44.3055C54.241 45.2776 61.5248 47.4078 68.354 51.1821L77.4768 41.286C71.3191 37.9976 63.6944 35.9192 56.0593 34.8127L47.2361 44.3055Z" fill="#2B5A27"/>
<path d="M24.5996 117.684V113.258C23.5354 114.147 22.3266 115.502 20.9318 117.508C20.3016 118.418 19.5784 119.235 18.8035 119.99H22.0683C22.9672 119.121 23.8454 118.325 24.5996 117.684Z" fill="#2B5A27"/>
<path d="M9.56708 116.319C12.0467 115.533 13.9787 113.527 15.2908 110.362C17.8634 104.179 19.878 100.528 22.7606 98.8324C24.1863 97.9948 25.5294 97.0435 26.6556 95.8336L27.6991 94.7168L31.5011 90.6529L32.8132 89.2465C29.8997 88.926 27.2445 89.0604 25.0335 89.7119C22.1613 90.5598 20.0847 92.235 18.8552 94.6961C15.0738 102.276 6.09566 105.285 1.22946 106.381C0.506249 106.547 0 107.198 0 107.943V113.909C0 114.54 0.371938 115.119 0.950509 115.367C3.13048 116.298 6.48826 117.291 9.56708 116.319Z" fill="#2B5A27"/>
<path d="M222.946 82.5974C220.084 82.5974 217.79 81.6874 216.086 79.8571C211.302 74.7281 206.767 71.9051 198.119 68.6787V73.632C198.419 74.1387 198.698 74.6764 198.966 75.2761C202.624 83.3213 212.284 89.474 222.967 89.7739H225.116C228.008 89.7739 230.901 89.3189 233.598 88.2538C233.619 88.2435 233.639 88.2435 233.65 88.2331C244.766 83.8383 255.677 76.3619 257.04 70.5608H243.806C242.803 73.3114 241.068 75.6071 238.867 76.8996C232.399 80.6947 227.079 82.5974 222.946 82.5974Z" fill="#2B5A27"/>
<path d="M222.967 100.011V92.8451C212.604 92.6486 203.233 87.8402 198.119 80.4052V90.4771C200.382 91.3457 203.254 93.0519 206.756 96.2472C211.509 100.58 216.809 101.004 222.967 100.011Z" fill="#2B5A27"/>
<path d="M222.254 32C222.326 32.7652 222.398 33.5821 222.46 34.5128C222.915 40.8103 229.445 46.6839 234.931 51.2132H242.824C237.307 45.0811 231.914 38.3492 229.868 32H222.254Z" fill="#2B5A27"/>
<path d="M205.01 98.1706C202.19 95.6061 199.906 94.1274 198.109 93.3001V103.372C198.274 103.496 198.439 103.61 198.605 103.734C204.773 108.511 213.978 113.392 222.967 114.478V102.627C216.385 103.631 210.424 103.103 205.01 98.1706Z" fill="#2B5A27"/>
<path d="M238.474 89.7739H254.86C257.454 87.9333 259.84 85.6996 261.731 83.0317V70.5608H260.398C259.272 77.882 248.207 85.3274 238.474 89.7739Z" fill="#2B5A27"/>
<path d="M222.967 51.2132H229.816C224.692 46.6839 219.619 41.1412 219.154 34.7506C219.082 33.7062 218.999 32.8066 218.927 32H211.044C212.325 40.1279 217.821 45.929 222.967 51.2132Z" fill="#2B5A27"/>
<path d="M209.68 56.1561C208.73 56.1561 207.666 55.7838 206.56 54.8635C204.762 53.3744 201.25 51.3993 198.109 49.7655V52.2886C203.275 54.729 209.598 58.5965 213.741 64.1805C216.385 67.7481 219.805 69.2578 222.956 69.4026V56.0009C216.83 50.0136 209.122 42.6303 207.686 32H204.897C205.279 36.4672 206.291 41.7203 208.688 43.7575C213.606 47.9662 214.226 52.6505 212.304 54.9255C211.695 55.67 210.765 56.1561 209.68 56.1561Z" fill="#2B5A27"/>
<path d="M208.678 52.3294C209.205 52.774 209.68 52.9291 209.783 52.805C210.31 52.1846 210.104 49.3305 206.539 46.28C203.12 43.3536 201.952 36.8802 201.56 32.0097H198.109V46.0628C201.704 47.8725 206.353 50.3956 208.678 52.3294Z" fill="#2B5A27"/>
<path d="M198.119 119.917H210.682C206.322 118.625 201.714 117.735 198.119 117.167V119.917Z" fill="#2B5A27"/>
<path d="M198.14 65.1629C207.934 68.7201 213.172 71.8947 218.493 77.6028C221.376 80.6947 228.019 79.4331 237.204 74.0456C238.433 73.3217 239.477 72.0808 240.22 70.5608H230.819C230.374 70.871 229.909 71.1605 229.393 71.419C227.678 72.2463 225.674 72.7013 223.587 72.7013C219.258 72.7013 214.526 70.7572 211.106 66.1556C207.727 61.616 202.624 58.2759 198.119 55.9906V65.1112C198.129 65.1318 198.129 65.1422 198.14 65.1629Z" fill="#2B5A27"/>
<path d="M198.119 107.488V114.53C202.923 115.274 209.649 116.598 215.363 118.749C216.633 119.224 218.266 119.617 220.115 119.917H222.967V117.777C213.875 116.763 204.68 112.224 198.119 107.488Z" fill="#2B5A27"/>
<path d="M256.596 36.188C258.983 40.4794 264.272 43.2094 267.01 44.3159V32H254.468C254.974 33.1271 255.646 34.4921 256.596 36.188Z" fill="#2B5A27"/>
<path d="M258.952 89.7739H261.731V87.0543C260.863 88.016 259.933 88.926 258.952 89.7739Z" fill="#2B5A27"/>
<path d="M238.536 32H233.35C235.695 38.1838 241.636 45.0707 247.287 51.2132H255.274C253.662 49.5897 252.112 48.173 250.759 47.0045C245.583 42.4959 240.623 38.1631 238.536 32Z" fill="#2B5A27"/>
<path d="M267 46.7046C264.396 45.8566 257.588 43.3232 254.323 37.4496C253.052 35.1539 252.215 33.3857 251.637 32H241.285C243.32 37.0877 247.659 40.8827 252.463 45.0397C254.147 46.4978 256.369 48.6693 258.673 51.2132H267V46.7046V46.7046Z" fill="#2B5A27"/>
<path d="M107.893 85.3481C110.497 84.5932 112.522 82.4837 113.865 79.1229C116.809 72.1326 119.082 68.1824 122.533 66.6623V58.1622C120.343 59.0928 118.659 60.6853 117.656 62.7121C113.276 71.4501 102.335 74.3972 97.7991 75.2451V83.921C99.8964 84.9241 104.101 86.6096 107.893 85.3481Z" fill="#966A45"/>
<path d="M117.14 84.8414C119.072 81.977 120.921 80.126 122.523 79.0298V70.2712C120.508 71.9567 118.989 75.2348 116.799 80.3741C115.032 84.5828 112.336 87.2818 108.813 88.3676C104.773 89.7119 100.568 88.533 97.7888 87.3542V93.9206C102.335 93.3415 112.511 91.4905 117.14 84.8414Z" fill="#966A45"/>
<path d="M180.907 55.2047C182.002 55.8769 183.097 56.7248 184.275 57.4797C184.275 57.3969 184.192 57.3969 184.192 57.3142V57.2315C184.109 57.066 184.027 56.8075 183.944 56.6421C183.521 55.8045 183.19 54.8738 182.601 54.0362C181.847 52.7746 181.082 51.5958 180.245 50.4169C179.822 49.7448 179.316 49.1553 178.727 48.5659C178.138 47.811 177.466 47.0458 176.712 46.3737C172.507 41.9065 167.207 38.463 161.07 36.1053C166.019 42.4028 172.91 50.0653 180.907 55.2047Z" fill="#966A45"/>
<path d="M110.073 102.017C112.594 102.441 113.266 102.017 115.456 96.2059C116.21 94.0136 119.743 90.2289 122.523 87.7885V83.2385C121.686 84.0761 120.756 85.1723 119.743 86.6096C114.278 94.6031 102.583 96.6299 97.7888 97.1365V106.143C97.9541 105.895 98.1297 105.719 98.3777 105.471C102.252 102.1 107.469 101.593 110.073 102.017Z" fill="#966A45"/>
<path d="M111.251 32.5584C111.416 32.3929 111.499 32.3102 111.674 32.2172H97.7989V39.7142C99.8136 39.7969 104.184 38.9593 111.251 32.5584Z" fill="#966A45"/>
<path d="M184.936 93.0933C184.306 94.6754 183.572 96.1955 182.756 97.6432C180.101 103.341 175.245 107.726 171.174 110.621C171.154 110.642 171.133 110.652 171.112 110.662C170.689 110.962 170.275 111.241 169.883 111.5C169.914 111.438 169.955 111.376 169.986 111.303C173.323 104.768 178.003 95.5751 184.936 93.0933Z" fill="#966A45"/>
<path d="M188.046 76.0827C188.046 80.8912 187.405 85.4101 186.165 89.5568C176.733 91.2113 170.916 102.638 167.228 109.897C166.442 111.428 165.544 113.206 164.789 114.447C164.407 114.623 164.2 114.716 164.19 114.706C161.246 116.06 158.074 117.198 154.654 118.015C155.997 109.514 162.31 103.951 169.459 97.726C174.511 93.3415 180.814 85.9375 187.963 74.149C188.046 74.7384 188.046 75.4106 188.046 76.0827Z" fill="#966A45"/>
<path d="M167.021 83.4971C172.238 77.1788 174.253 71.7913 173.241 67.169C172.145 62.0296 167.352 57.4073 158.518 53.0228C138.671 43.0853 122.688 36.6016 113.596 49.7448C109.133 56.2284 104.68 59.6823 100.392 60.0132C99.3798 60.0959 98.543 59.9304 97.7888 59.765V71.9774C102.159 71.0468 111.251 68.3582 114.784 61.2851C116.386 58.0898 118.989 55.8975 122.523 54.7187V52.0197H138.165C153.053 52.0197 163.064 60.9438 163.064 76.1034C163.064 90.0841 154.489 98.7497 141.45 99.9286C139.012 101.78 137.328 103.548 137.245 105.575C136.904 111.634 130.013 115.512 125.891 117.787C124.961 118.294 124.124 118.718 123.7 119.049C123.452 119.214 123.112 119.555 122.864 119.886H140.365C140.706 118.956 141.037 117.87 141.202 116.35C141.708 110.797 147.763 104.478 155.336 96.4851C159.283 92.3281 163.24 88.1194 167.021 83.4971Z" fill="#966A45"/>
<path d="M186.754 68.0163C186.703 68.1818 186.63 68.3369 186.558 68.5023C186.548 68.5334 186.527 68.5644 186.517 68.5954C186.465 68.7091 186.424 68.8229 186.362 68.947C182.487 77.9641 173.582 89.9181 167.362 95.3677C159.706 102.017 152.474 108.418 151.379 118.769C148.941 119.276 146.409 119.534 143.723 119.7C143.971 118.852 144.229 117.766 144.312 116.587C144.818 112.202 150.79 105.895 157.681 98.6457C161.39 94.6955 165.678 90.2283 169.459 85.5129C175.348 78.3571 177.539 72.1319 176.361 66.4859C175.018 60.3435 169.718 55.0386 159.954 50.1578C143.217 41.8231 122.357 31.4617 111.003 47.9656C106.209 54.8732 102.5 56.6415 100.227 56.8069C99.1422 56.8896 98.3777 56.7242 97.7888 56.3829V42.9193C100.733 43.002 105.868 41.7404 113.359 34.9155C114.536 33.8194 115.714 32.899 116.975 32.2269H139.177C140.355 32.2269 141.533 32.2269 142.711 32.3096C147.257 32.5578 151.627 33.1472 155.584 34.3261C160.543 41.2337 168.87 51.5021 179.047 58.0685C180.659 59.1232 182.456 60.3124 184.264 61.574C184.264 61.574 184.275 61.5844 184.295 61.605C185.246 62.1945 187.818 64.8107 186.754 68.0163Z" fill="#966A45"/>
<path d="M104.949 109.339C107.222 107.819 110.672 106.557 113.111 108.077C115.218 109.421 117.739 108.325 118.741 107.829C121.097 106.567 122.781 104.375 122.864 102.524C122.946 101.769 122.616 100.921 122.523 100.084V92.2557C120.508 94.1894 118.741 96.2989 118.4 97.302C116.551 102.266 115.115 106.143 109.484 105.13C107.469 104.789 103.347 105.378 100.403 107.912C99.2248 109.008 98.295 110.352 97.7991 111.872V119.866H101.839C101.25 119.028 100.826 118.097 100.661 117.084C100.237 114.302 101.828 111.355 104.949 109.339Z" fill="#966A45"/>
<path d="M134.053 105.378C134.135 103.362 135.065 101.676 136.574 100.073H125.705C125.787 100.911 126.149 101.759 126.066 102.679C125.901 105.709 123.628 108.822 120.177 110.59C117.15 112.275 113.958 112.275 111.509 110.755C110.672 110.331 108.647 110.59 106.715 111.934C105.114 113.03 103.523 114.716 103.853 116.567C103.936 117.322 104.525 118.583 106.457 119.845H118.741C119.671 118.583 120.756 117.239 121.851 116.474C122.357 116.05 123.194 115.543 124.289 114.954C127.905 112.958 133.877 109.68 134.053 105.378Z" fill="#966A45"/>
</g>
<defs>
<clipPath id="clip0">
<rect width="267" height="88" fill="white" transform="translate(0 32)"/>
</clipPath>
</defs>
</svg>
